<mxfile host="app.diagrams.net" modified="2021-07-01T19:15:32.075Z" agent="5.0 (Macintosh; Intel Mac OS X 10_15_7) AppleWebKit/605.1.15 (KHTML, like Gecko) Version/14.1.1 Safari/605.1.15" etag="eJLbjVQr-411eeJ96i8l" version="14.7.6" type="github">
  <diagram id="s9DusNigEION0U9D3sJn" name="Page-1">
    <mxGraphModel dx="3570" dy="1290" grid="1" gridSize="10" guides="1" tooltips="1" connect="1" arrows="1" fold="1" page="1" pageScale="1" pageWidth="1654" pageHeight="1169" math="0" shadow="0">
      <root>
        <mxCell id="0" />
        <mxCell id="1" parent="0" />
        <mxCell id="NwrFMbraZguzJdF94J6V-99" style="edgeStyle=orthogonalEdgeStyle;shape=link;rounded=0;orthogonalLoop=1;jettySize=auto;html=1;exitX=0;exitY=0.5;exitDx=0;exitDy=0;entryX=1;entryY=0.5;entryDx=0;entryDy=0;" edge="1" parent="1" source="NwrFMbraZguzJdF94J6V-1" target="NwrFMbraZguzJdF94J6V-33">
          <mxGeometry relative="1" as="geometry" />
        </mxCell>
        <mxCell id="NwrFMbraZguzJdF94J6V-104" style="edgeStyle=none;shape=link;rounded=0;orthogonalLoop=1;jettySize=auto;html=1;exitX=1;exitY=1;exitDx=0;exitDy=0;entryX=0.5;entryY=0;entryDx=0;entryDy=0;" edge="1" parent="1" source="NwrFMbraZguzJdF94J6V-1" target="NwrFMbraZguzJdF94J6V-77">
          <mxGeometry relative="1" as="geometry" />
        </mxCell>
        <mxCell id="NwrFMbraZguzJdF94J6V-105" style="edgeStyle=none;shape=link;rounded=0;orthogonalLoop=1;jettySize=auto;html=1;exitX=0.75;exitY=1;exitDx=0;exitDy=0;entryX=0.5;entryY=0;entryDx=0;entryDy=0;" edge="1" parent="1" source="NwrFMbraZguzJdF94J6V-1" target="NwrFMbraZguzJdF94J6V-71">
          <mxGeometry relative="1" as="geometry" />
        </mxCell>
        <mxCell id="NwrFMbraZguzJdF94J6V-112" style="edgeStyle=none;shape=link;rounded=0;orthogonalLoop=1;jettySize=auto;html=1;exitX=0;exitY=1;exitDx=0;exitDy=0;entryX=0.5;entryY=0;entryDx=0;entryDy=0;" edge="1" parent="1" source="NwrFMbraZguzJdF94J6V-1" target="NwrFMbraZguzJdF94J6V-49">
          <mxGeometry relative="1" as="geometry" />
        </mxCell>
        <mxCell id="NwrFMbraZguzJdF94J6V-1" value="BOLETIM DE&lt;br&gt;OCORRÊNCIA" style="whiteSpace=wrap;html=1;align=center;" vertex="1" parent="1">
          <mxGeometry x="-935" y="490" width="100" height="40" as="geometry" />
        </mxCell>
        <mxCell id="NwrFMbraZguzJdF94J6V-2" value="data e hora do&lt;br&gt;fato" style="ellipse;whiteSpace=wrap;html=1;align=center;" vertex="1" parent="1">
          <mxGeometry x="-1130" y="390" width="100" height="40" as="geometry" />
        </mxCell>
        <mxCell id="NwrFMbraZguzJdF94J6V-3" value="histórico do&amp;nbsp;&lt;br&gt;fato" style="ellipse;whiteSpace=wrap;html=1;align=center;" vertex="1" parent="1">
          <mxGeometry x="-710" y="390" width="100" height="40" as="geometry" />
        </mxCell>
        <mxCell id="NwrFMbraZguzJdF94J6V-4" value="descrição do&lt;br&gt;local do fato" style="ellipse;whiteSpace=wrap;html=1;align=center;" vertex="1" parent="1">
          <mxGeometry x="-1030" y="400" width="100" height="40" as="geometry" />
        </mxCell>
        <mxCell id="NwrFMbraZguzJdF94J6V-5" value="&lt;u&gt;número de&lt;br&gt;identificação&lt;/u&gt;" style="ellipse;whiteSpace=wrap;html=1;align=center;" vertex="1" parent="1">
          <mxGeometry x="-820" y="400" width="100" height="40" as="geometry" />
        </mxCell>
        <mxCell id="NwrFMbraZguzJdF94J6V-9" value="DELEGACIA" style="whiteSpace=wrap;html=1;align=center;" vertex="1" parent="1">
          <mxGeometry x="540" y="310" width="100" height="40" as="geometry" />
        </mxCell>
        <mxCell id="NwrFMbraZguzJdF94J6V-10" value="ORIGEM DA&lt;br&gt;COMUNICAÇÃO" style="whiteSpace=wrap;html=1;align=center;" vertex="1" parent="1">
          <mxGeometry x="-480" y="490" width="100" height="40" as="geometry" />
        </mxCell>
        <mxCell id="NwrFMbraZguzJdF94J6V-12" value="&lt;u&gt;código&lt;/u&gt;" style="ellipse;whiteSpace=wrap;html=1;align=center;" vertex="1" parent="1">
          <mxGeometry x="-570" y="430" width="100" height="40" as="geometry" />
        </mxCell>
        <mxCell id="NwrFMbraZguzJdF94J6V-13" value="descrição" style="ellipse;whiteSpace=wrap;html=1;align=center;" vertex="1" parent="1">
          <mxGeometry x="-400" y="430" width="100" height="40" as="geometry" />
        </mxCell>
        <mxCell id="NwrFMbraZguzJdF94J6V-107" style="edgeStyle=none;shape=link;rounded=0;orthogonalLoop=1;jettySize=auto;html=1;exitX=0.5;exitY=1;exitDx=0;exitDy=0;entryX=0.5;entryY=0;entryDx=0;entryDy=0;" edge="1" parent="1" source="NwrFMbraZguzJdF94J6V-14" target="NwrFMbraZguzJdF94J6V-50">
          <mxGeometry relative="1" as="geometry" />
        </mxCell>
        <mxCell id="NwrFMbraZguzJdF94J6V-14" value="CIDADÃOS&amp;nbsp;&lt;br&gt;ENVOLVIDOS" style="whiteSpace=wrap;html=1;align=center;" vertex="1" parent="1">
          <mxGeometry x="-1080" y="740" width="100" height="40" as="geometry" />
        </mxCell>
        <mxCell id="NwrFMbraZguzJdF94J6V-15" value="nome" style="ellipse;whiteSpace=wrap;html=1;align=center;" vertex="1" parent="1">
          <mxGeometry x="-1170" y="680" width="100" height="40" as="geometry" />
        </mxCell>
        <mxCell id="NwrFMbraZguzJdF94J6V-16" value="data&lt;br&gt;nascimento" style="ellipse;whiteSpace=wrap;html=1;align=center;" vertex="1" parent="1">
          <mxGeometry x="-950" y="730" width="100" height="40" as="geometry" />
        </mxCell>
        <mxCell id="NwrFMbraZguzJdF94J6V-17" value="&lt;u&gt;identidade&lt;/u&gt;" style="ellipse;whiteSpace=wrap;html=1;align=center;" vertex="1" parent="1">
          <mxGeometry x="-975" y="680" width="100" height="40" as="geometry" />
        </mxCell>
        <mxCell id="NwrFMbraZguzJdF94J6V-19" value="" style="endArrow=none;html=1;rounded=0;exitX=0;exitY=1;exitDx=0;exitDy=0;entryX=1;entryY=0;entryDx=0;entryDy=0;" edge="1" parent="1" source="NwrFMbraZguzJdF94J6V-3" target="NwrFMbraZguzJdF94J6V-1">
          <mxGeometry relative="1" as="geometry">
            <mxPoint x="-745" y="610" as="sourcePoint" />
            <mxPoint x="-585" y="610" as="targetPoint" />
          </mxGeometry>
        </mxCell>
        <mxCell id="NwrFMbraZguzJdF94J6V-20" value="" style="endArrow=none;html=1;rounded=0;exitX=1;exitY=1;exitDx=0;exitDy=0;entryX=0;entryY=0;entryDx=0;entryDy=0;" edge="1" parent="1" source="NwrFMbraZguzJdF94J6V-2" target="NwrFMbraZguzJdF94J6V-1">
          <mxGeometry relative="1" as="geometry">
            <mxPoint x="-745" y="610" as="sourcePoint" />
            <mxPoint x="-585" y="610" as="targetPoint" />
          </mxGeometry>
        </mxCell>
        <mxCell id="NwrFMbraZguzJdF94J6V-21" value="" style="endArrow=none;html=1;rounded=0;exitX=0;exitY=1;exitDx=0;exitDy=0;entryX=1;entryY=0;entryDx=0;entryDy=0;" edge="1" parent="1" source="NwrFMbraZguzJdF94J6V-5" target="NwrFMbraZguzJdF94J6V-1">
          <mxGeometry relative="1" as="geometry">
            <mxPoint x="-745" y="610" as="sourcePoint" />
            <mxPoint x="-585" y="610" as="targetPoint" />
          </mxGeometry>
        </mxCell>
        <mxCell id="NwrFMbraZguzJdF94J6V-22" value="" style="endArrow=none;html=1;rounded=0;exitX=1;exitY=1;exitDx=0;exitDy=0;entryX=0;entryY=0;entryDx=0;entryDy=0;" edge="1" parent="1" source="NwrFMbraZguzJdF94J6V-4" target="NwrFMbraZguzJdF94J6V-1">
          <mxGeometry relative="1" as="geometry">
            <mxPoint x="-745" y="610" as="sourcePoint" />
            <mxPoint x="-875" y="560" as="targetPoint" />
          </mxGeometry>
        </mxCell>
        <mxCell id="NwrFMbraZguzJdF94J6V-23" value="" style="endArrow=none;html=1;rounded=0;entryX=0;entryY=0;entryDx=0;entryDy=0;exitX=1;exitY=1;exitDx=0;exitDy=0;" edge="1" parent="1" source="NwrFMbraZguzJdF94J6V-15" target="NwrFMbraZguzJdF94J6V-14">
          <mxGeometry relative="1" as="geometry">
            <mxPoint x="-1110" y="750" as="sourcePoint" />
            <mxPoint x="-1180" y="740" as="targetPoint" />
          </mxGeometry>
        </mxCell>
        <mxCell id="NwrFMbraZguzJdF94J6V-24" value="" style="endArrow=none;html=1;rounded=0;entryX=0;entryY=1;entryDx=0;entryDy=0;exitX=1;exitY=0;exitDx=0;exitDy=0;" edge="1" parent="1" source="NwrFMbraZguzJdF94J6V-14" target="NwrFMbraZguzJdF94J6V-17">
          <mxGeometry relative="1" as="geometry">
            <mxPoint x="-985" y="750" as="sourcePoint" />
            <mxPoint x="-1180" y="740" as="targetPoint" />
          </mxGeometry>
        </mxCell>
        <mxCell id="NwrFMbraZguzJdF94J6V-27" value="" style="endArrow=none;html=1;rounded=0;exitX=1;exitY=0;exitDx=0;exitDy=0;entryX=0;entryY=1;entryDx=0;entryDy=0;" edge="1" parent="1" source="NwrFMbraZguzJdF94J6V-133" target="NwrFMbraZguzJdF94J6V-14">
          <mxGeometry relative="1" as="geometry">
            <mxPoint x="-1100" y="770" as="sourcePoint" />
            <mxPoint x="-1180" y="740" as="targetPoint" />
          </mxGeometry>
        </mxCell>
        <mxCell id="NwrFMbraZguzJdF94J6V-28" value="" style="endArrow=none;html=1;rounded=0;entryX=0;entryY=0.5;entryDx=0;entryDy=0;exitX=1;exitY=0.5;exitDx=0;exitDy=0;" edge="1" parent="1" source="NwrFMbraZguzJdF94J6V-14" target="NwrFMbraZguzJdF94J6V-16">
          <mxGeometry relative="1" as="geometry">
            <mxPoint x="-1340" y="740" as="sourcePoint" />
            <mxPoint x="-1180" y="740" as="targetPoint" />
          </mxGeometry>
        </mxCell>
        <mxCell id="NwrFMbraZguzJdF94J6V-30" value="" style="endArrow=none;html=1;rounded=0;exitX=0.75;exitY=0;exitDx=0;exitDy=0;entryX=0;entryY=1;entryDx=0;entryDy=0;" edge="1" parent="1" source="NwrFMbraZguzJdF94J6V-10" target="NwrFMbraZguzJdF94J6V-13">
          <mxGeometry relative="1" as="geometry">
            <mxPoint x="-349.64466094067257" y="585.8578643762692" as="sourcePoint" />
            <mxPoint x="-350" y="510" as="targetPoint" />
          </mxGeometry>
        </mxCell>
        <mxCell id="NwrFMbraZguzJdF94J6V-31" value="" style="endArrow=none;html=1;rounded=0;exitX=0.25;exitY=0;exitDx=0;exitDy=0;entryX=1;entryY=1;entryDx=0;entryDy=0;" edge="1" parent="1" source="NwrFMbraZguzJdF94J6V-10" target="NwrFMbraZguzJdF94J6V-12">
          <mxGeometry relative="1" as="geometry">
            <mxPoint x="-395" y="500" as="sourcePoint" />
            <mxPoint x="-340" y="480" as="targetPoint" />
          </mxGeometry>
        </mxCell>
        <mxCell id="NwrFMbraZguzJdF94J6V-109" style="edgeStyle=none;shape=link;rounded=0;orthogonalLoop=1;jettySize=auto;html=1;exitX=0;exitY=0.5;exitDx=0;exitDy=0;entryX=1;entryY=0.5;entryDx=0;entryDy=0;" edge="1" parent="1" source="NwrFMbraZguzJdF94J6V-32" target="NwrFMbraZguzJdF94J6V-1">
          <mxGeometry relative="1" as="geometry" />
        </mxCell>
        <mxCell id="NwrFMbraZguzJdF94J6V-32" value="indica" style="shape=rhombus;perimeter=rhombusPerimeter;whiteSpace=wrap;html=1;align=center;" vertex="1" parent="1">
          <mxGeometry x="-720" y="480" width="120" height="60" as="geometry" />
        </mxCell>
        <mxCell id="NwrFMbraZguzJdF94J6V-33" value="registrado&lt;br&gt;em" style="shape=rhombus;perimeter=rhombusPerimeter;whiteSpace=wrap;html=1;align=center;" vertex="1" parent="1">
          <mxGeometry x="-1210" y="480" width="120" height="60" as="geometry" />
        </mxCell>
        <mxCell id="NwrFMbraZguzJdF94J6V-101" style="edgeStyle=none;shape=link;rounded=0;orthogonalLoop=1;jettySize=auto;html=1;exitX=0.5;exitY=1;exitDx=0;exitDy=0;entryX=0.5;entryY=0;entryDx=0;entryDy=0;" edge="1" parent="1" source="NwrFMbraZguzJdF94J6V-34" target="NwrFMbraZguzJdF94J6V-35">
          <mxGeometry relative="1" as="geometry" />
        </mxCell>
        <mxCell id="NwrFMbraZguzJdF94J6V-34" value="UNIDADE&lt;br&gt;ADMNISTRATIVA&lt;br&gt;(U.A.)" style="whiteSpace=wrap;html=1;align=center;" vertex="1" parent="1">
          <mxGeometry x="-1490" y="490" width="100" height="40" as="geometry" />
        </mxCell>
        <mxCell id="NwrFMbraZguzJdF94J6V-35" value="d" style="ellipse;whiteSpace=wrap;html=1;aspect=fixed;" vertex="1" parent="1">
          <mxGeometry x="-1450" y="580" width="20" height="20" as="geometry" />
        </mxCell>
        <mxCell id="NwrFMbraZguzJdF94J6V-37" value="" style="endArrow=none;html=1;rounded=0;exitX=0;exitY=1;exitDx=0;exitDy=0;entryX=0.68;entryY=0.025;entryDx=0;entryDy=0;entryPerimeter=0;" edge="1" parent="1" source="NwrFMbraZguzJdF94J6V-35" target="NwrFMbraZguzJdF94J6V-39">
          <mxGeometry relative="1" as="geometry">
            <mxPoint x="-1220" y="700" as="sourcePoint" />
            <mxPoint x="-1490" y="640" as="targetPoint" />
          </mxGeometry>
        </mxCell>
        <mxCell id="NwrFMbraZguzJdF94J6V-38" value="" style="endArrow=none;html=1;rounded=0;exitX=1;exitY=1;exitDx=0;exitDy=0;entryX=0.25;entryY=0;entryDx=0;entryDy=0;" edge="1" parent="1" source="NwrFMbraZguzJdF94J6V-35" target="NwrFMbraZguzJdF94J6V-40">
          <mxGeometry relative="1" as="geometry">
            <mxPoint x="-1437.0710678118655" y="607.0710678118655" as="sourcePoint" />
            <mxPoint x="-1400" y="640" as="targetPoint" />
          </mxGeometry>
        </mxCell>
        <mxCell id="NwrFMbraZguzJdF94J6V-39" value="U.A.&lt;br&gt;POLÍCIA MILITAR" style="whiteSpace=wrap;html=1;align=center;" vertex="1" parent="1">
          <mxGeometry x="-1590" y="660" width="100" height="40" as="geometry" />
        </mxCell>
        <mxCell id="NwrFMbraZguzJdF94J6V-40" value="U.A.&lt;br&gt;POLÍCIA CIVIL&amp;nbsp;" style="whiteSpace=wrap;html=1;align=center;" vertex="1" parent="1">
          <mxGeometry x="-1390" y="660" width="100" height="40" as="geometry" />
        </mxCell>
        <mxCell id="NwrFMbraZguzJdF94J6V-42" value="" style="verticalLabelPosition=bottom;verticalAlign=top;html=1;shape=mxgraph.basic.arc;startAngle=0.17620819117478337;endAngle=0.7721378066508927;rotation=45;" vertex="1" parent="1">
          <mxGeometry x="-1500" y="620" width="20" height="20" as="geometry" />
        </mxCell>
        <mxCell id="NwrFMbraZguzJdF94J6V-43" value="" style="verticalLabelPosition=bottom;verticalAlign=top;html=1;shape=mxgraph.basic.arc;startAngle=0.17620819117478337;endAngle=0.7388772973869184;rotation=-45;" vertex="1" parent="1">
          <mxGeometry x="-1410" y="620" width="20" height="20" as="geometry" />
        </mxCell>
        <mxCell id="NwrFMbraZguzJdF94J6V-44" value="tipo de unidade" style="ellipse;whiteSpace=wrap;html=1;align=center;" vertex="1" parent="1">
          <mxGeometry x="-1600" y="760" width="100" height="40" as="geometry" />
        </mxCell>
        <mxCell id="NwrFMbraZguzJdF94J6V-45" value="nome &amp;nbsp;delegado&lt;br&gt;responsável" style="ellipse;whiteSpace=wrap;html=1;align=center;" vertex="1" parent="1">
          <mxGeometry x="-1390" y="760" width="100" height="40" as="geometry" />
        </mxCell>
        <mxCell id="NwrFMbraZguzJdF94J6V-46" value="" style="endArrow=none;html=1;rounded=0;exitX=0.5;exitY=1;exitDx=0;exitDy=0;entryX=0.5;entryY=0;entryDx=0;entryDy=0;" edge="1" parent="1" source="NwrFMbraZguzJdF94J6V-40" target="NwrFMbraZguzJdF94J6V-45">
          <mxGeometry relative="1" as="geometry">
            <mxPoint x="-1140" y="770" as="sourcePoint" />
            <mxPoint x="-980" y="770" as="targetPoint" />
          </mxGeometry>
        </mxCell>
        <mxCell id="NwrFMbraZguzJdF94J6V-48" value="" style="endArrow=none;html=1;rounded=0;entryX=0.5;entryY=0;entryDx=0;entryDy=0;" edge="1" parent="1" target="NwrFMbraZguzJdF94J6V-44">
          <mxGeometry relative="1" as="geometry">
            <mxPoint x="-1550" y="701" as="sourcePoint" />
            <mxPoint x="-980" y="770" as="targetPoint" />
          </mxGeometry>
        </mxCell>
        <mxCell id="NwrFMbraZguzJdF94J6V-49" value="envolve" style="shape=rhombus;perimeter=rhombusPerimeter;whiteSpace=wrap;html=1;align=center;" vertex="1" parent="1">
          <mxGeometry x="-1085" y="610" width="110" height="50" as="geometry" />
        </mxCell>
        <mxCell id="NwrFMbraZguzJdF94J6V-50" value="d" style="ellipse;whiteSpace=wrap;html=1;aspect=fixed;" vertex="1" parent="1">
          <mxGeometry x="-1040" y="830" width="20" height="20" as="geometry" />
        </mxCell>
        <mxCell id="NwrFMbraZguzJdF94J6V-51" value="" style="endArrow=none;html=1;rounded=0;exitX=0.5;exitY=1;exitDx=0;exitDy=0;entryX=0.5;entryY=0;entryDx=0;entryDy=0;" edge="1" parent="1" source="NwrFMbraZguzJdF94J6V-50" target="NwrFMbraZguzJdF94J6V-57">
          <mxGeometry relative="1" as="geometry">
            <mxPoint x="-1040.0010678118656" y="861.0010678118656" as="sourcePoint" />
            <mxPoint x="-1114.93" y="924.9300000000001" as="targetPoint" />
          </mxGeometry>
        </mxCell>
        <mxCell id="NwrFMbraZguzJdF94J6V-52" value="" style="endArrow=none;html=1;rounded=0;exitX=1;exitY=1;exitDx=0;exitDy=0;entryX=0.25;entryY=0;entryDx=0;entryDy=0;" edge="1" parent="1" source="NwrFMbraZguzJdF94J6V-50" target="NwrFMbraZguzJdF94J6V-55">
          <mxGeometry relative="1" as="geometry">
            <mxPoint x="-1009.9989321881344" y="878.5310678118656" as="sourcePoint" />
            <mxPoint x="-960" y="920" as="targetPoint" />
          </mxGeometry>
        </mxCell>
        <mxCell id="NwrFMbraZguzJdF94J6V-53" value="" style="verticalLabelPosition=bottom;verticalAlign=top;html=1;shape=mxgraph.basic.arc;startAngle=0.17620819117478337;endAngle=0.7721378066508927;rotation=-45;direction=south;" vertex="1" parent="1">
          <mxGeometry x="-1085" y="900" width="20" height="20" as="geometry" />
        </mxCell>
        <mxCell id="NwrFMbraZguzJdF94J6V-54" value="" style="verticalLabelPosition=bottom;verticalAlign=top;html=1;shape=mxgraph.basic.arc;startAngle=0.17620819117478337;endAngle=0.7388772973869184;rotation=-25;" vertex="1" parent="1">
          <mxGeometry x="-1010" y="900" width="20" height="20" as="geometry" />
        </mxCell>
        <mxCell id="NwrFMbraZguzJdF94J6V-55" value="denunciante" style="whiteSpace=wrap;html=1;align=center;" vertex="1" parent="1">
          <mxGeometry x="-970" y="900" width="100" height="40" as="geometry" />
        </mxCell>
        <mxCell id="NwrFMbraZguzJdF94J6V-56" value="denunciado" style="whiteSpace=wrap;html=1;align=center;" vertex="1" parent="1">
          <mxGeometry x="-1050" y="950" width="100" height="40" as="geometry" />
        </mxCell>
        <mxCell id="NwrFMbraZguzJdF94J6V-57" value="vítima" style="whiteSpace=wrap;html=1;align=center;" vertex="1" parent="1">
          <mxGeometry x="-1160" y="950" width="100" height="40" as="geometry" />
        </mxCell>
        <mxCell id="NwrFMbraZguzJdF94J6V-58" value="testemunha" style="whiteSpace=wrap;html=1;align=center;" vertex="1" parent="1">
          <mxGeometry x="-1220" y="900" width="100" height="40" as="geometry" />
        </mxCell>
        <mxCell id="NwrFMbraZguzJdF94J6V-61" value="" style="endArrow=none;html=1;rounded=0;entryX=0.75;entryY=0;entryDx=0;entryDy=0;" edge="1" parent="1" target="NwrFMbraZguzJdF94J6V-56">
          <mxGeometry relative="1" as="geometry">
            <mxPoint x="-1030" y="850" as="sourcePoint" />
            <mxPoint x="-1100" y="960" as="targetPoint" />
          </mxGeometry>
        </mxCell>
        <mxCell id="NwrFMbraZguzJdF94J6V-63" value="" style="verticalLabelPosition=bottom;verticalAlign=top;html=1;shape=mxgraph.basic.arc;startAngle=0.17620819117478337;endAngle=0.7388772973869184;rotation=-40;" vertex="1" parent="1">
          <mxGeometry x="-995" y="860" width="20" height="20" as="geometry" />
        </mxCell>
        <mxCell id="NwrFMbraZguzJdF94J6V-66" value="" style="endArrow=none;html=1;rounded=0;exitX=0;exitY=1;exitDx=0;exitDy=0;entryX=0.75;entryY=0;entryDx=0;entryDy=0;" edge="1" parent="1" source="NwrFMbraZguzJdF94J6V-50" target="NwrFMbraZguzJdF94J6V-58">
          <mxGeometry relative="1" as="geometry">
            <mxPoint x="-1037.0710678118655" y="847.0710678118655" as="sourcePoint" />
            <mxPoint x="-1089.3933982822018" y="876.4644660940673" as="targetPoint" />
          </mxGeometry>
        </mxCell>
        <mxCell id="NwrFMbraZguzJdF94J6V-67" value="" style="verticalLabelPosition=bottom;verticalAlign=top;html=1;shape=mxgraph.basic.arc;startAngle=0.17620819117478337;endAngle=0.724042578049723;rotation=-15;direction=south;" vertex="1" parent="1">
          <mxGeometry x="-1105" y="860" width="20" height="20" as="geometry" />
        </mxCell>
        <mxCell id="NwrFMbraZguzJdF94J6V-68" value="endereço" style="ellipse;shape=doubleEllipse;margin=3;whiteSpace=wrap;html=1;align=center;" vertex="1" parent="1">
          <mxGeometry x="-1220" y="730" width="100" height="40" as="geometry" />
        </mxCell>
        <mxCell id="NwrFMbraZguzJdF94J6V-70" value="TIPO DE&amp;nbsp;&lt;br&gt;OCORRÊNCIA" style="whiteSpace=wrap;html=1;align=center;" vertex="1" parent="1">
          <mxGeometry x="-820" y="750" width="100" height="40" as="geometry" />
        </mxCell>
        <mxCell id="NwrFMbraZguzJdF94J6V-71" value="indica" style="shape=rhombus;perimeter=rhombusPerimeter;whiteSpace=wrap;html=1;align=center;" vertex="1" parent="1">
          <mxGeometry x="-830" y="610" width="120" height="50" as="geometry" />
        </mxCell>
        <mxCell id="NwrFMbraZguzJdF94J6V-72" style="edgeStyle=orthogonalEdgeStyle;rounded=0;orthogonalLoop=1;jettySize=auto;html=1;exitX=0.5;exitY=1;exitDx=0;exitDy=0;" edge="1" parent="1" source="NwrFMbraZguzJdF94J6V-70" target="NwrFMbraZguzJdF94J6V-70">
          <mxGeometry relative="1" as="geometry" />
        </mxCell>
        <mxCell id="NwrFMbraZguzJdF94J6V-73" value="código" style="ellipse;whiteSpace=wrap;html=1;align=center;" vertex="1" parent="1">
          <mxGeometry x="-870" y="840" width="100" height="40" as="geometry" />
        </mxCell>
        <mxCell id="NwrFMbraZguzJdF94J6V-74" value="descrição" style="ellipse;whiteSpace=wrap;html=1;align=center;" vertex="1" parent="1">
          <mxGeometry x="-760" y="840" width="100" height="40" as="geometry" />
        </mxCell>
        <mxCell id="NwrFMbraZguzJdF94J6V-75" value="" style="endArrow=none;html=1;rounded=0;entryX=0.25;entryY=1;entryDx=0;entryDy=0;exitX=0.5;exitY=0;exitDx=0;exitDy=0;" edge="1" parent="1" source="NwrFMbraZguzJdF94J6V-73" target="NwrFMbraZguzJdF94J6V-70">
          <mxGeometry relative="1" as="geometry">
            <mxPoint x="-1000" y="830" as="sourcePoint" />
            <mxPoint x="-840" y="830" as="targetPoint" />
          </mxGeometry>
        </mxCell>
        <mxCell id="NwrFMbraZguzJdF94J6V-76" value="" style="endArrow=none;html=1;rounded=0;entryX=0.75;entryY=1;entryDx=0;entryDy=0;exitX=0.5;exitY=0;exitDx=0;exitDy=0;" edge="1" parent="1" source="NwrFMbraZguzJdF94J6V-74" target="NwrFMbraZguzJdF94J6V-70">
          <mxGeometry relative="1" as="geometry">
            <mxPoint x="-810" y="850" as="sourcePoint" />
            <mxPoint x="-785" y="800" as="targetPoint" />
          </mxGeometry>
        </mxCell>
        <mxCell id="NwrFMbraZguzJdF94J6V-77" value="registrado&lt;br&gt;por" style="shape=rhombus;perimeter=rhombusPerimeter;whiteSpace=wrap;html=1;align=center;" vertex="1" parent="1">
          <mxGeometry x="-590" y="605" width="120" height="60" as="geometry" />
        </mxCell>
        <mxCell id="NwrFMbraZguzJdF94J6V-106" style="edgeStyle=none;shape=link;rounded=0;orthogonalLoop=1;jettySize=auto;html=1;exitX=0.5;exitY=1;exitDx=0;exitDy=0;entryX=0.5;entryY=0;entryDx=0;entryDy=0;" edge="1" parent="1" source="NwrFMbraZguzJdF94J6V-78" target="NwrFMbraZguzJdF94J6V-84">
          <mxGeometry relative="1" as="geometry" />
        </mxCell>
        <mxCell id="NwrFMbraZguzJdF94J6V-78" value="POLICIAL&lt;br&gt;RESPONSÁVEL" style="whiteSpace=wrap;html=1;align=center;" vertex="1" parent="1">
          <mxGeometry x="-580" y="740" width="100" height="40" as="geometry" />
        </mxCell>
        <mxCell id="NwrFMbraZguzJdF94J6V-79" value="&lt;u&gt;identificador&lt;/u&gt;&lt;br&gt;&lt;u&gt;funcional&lt;/u&gt;" style="ellipse;whiteSpace=wrap;html=1;align=center;" vertex="1" parent="1">
          <mxGeometry x="-420" y="720" width="100" height="40" as="geometry" />
        </mxCell>
        <mxCell id="NwrFMbraZguzJdF94J6V-80" value="nome" style="ellipse;whiteSpace=wrap;html=1;align=center;" vertex="1" parent="1">
          <mxGeometry x="-420" y="665" width="100" height="40" as="geometry" />
        </mxCell>
        <mxCell id="NwrFMbraZguzJdF94J6V-81" value="" style="endArrow=none;html=1;rounded=0;entryX=0;entryY=0.5;entryDx=0;entryDy=0;exitX=1;exitY=0.5;exitDx=0;exitDy=0;" edge="1" parent="1" source="NwrFMbraZguzJdF94J6V-78" target="NwrFMbraZguzJdF94J6V-79">
          <mxGeometry relative="1" as="geometry">
            <mxPoint x="-960" y="800" as="sourcePoint" />
            <mxPoint x="-800" y="800" as="targetPoint" />
          </mxGeometry>
        </mxCell>
        <mxCell id="NwrFMbraZguzJdF94J6V-82" value="" style="endArrow=none;html=1;rounded=0;entryX=0;entryY=0.5;entryDx=0;entryDy=0;exitX=1;exitY=0.25;exitDx=0;exitDy=0;" edge="1" parent="1" source="NwrFMbraZguzJdF94J6V-78" target="NwrFMbraZguzJdF94J6V-80">
          <mxGeometry relative="1" as="geometry">
            <mxPoint x="-960" y="800" as="sourcePoint" />
            <mxPoint x="-800" y="800" as="targetPoint" />
          </mxGeometry>
        </mxCell>
        <mxCell id="NwrFMbraZguzJdF94J6V-84" value="d" style="ellipse;whiteSpace=wrap;html=1;aspect=fixed;" vertex="1" parent="1">
          <mxGeometry x="-540" y="860" width="20" height="20" as="geometry" />
        </mxCell>
        <mxCell id="NwrFMbraZguzJdF94J6V-85" value="" style="endArrow=none;html=1;rounded=0;exitX=0;exitY=1;exitDx=0;exitDy=0;entryX=0.68;entryY=0.025;entryDx=0;entryDy=0;entryPerimeter=0;" edge="1" parent="1" source="NwrFMbraZguzJdF94J6V-84" target="NwrFMbraZguzJdF94J6V-87">
          <mxGeometry relative="1" as="geometry">
            <mxPoint x="-310" y="980" as="sourcePoint" />
            <mxPoint x="-580" y="920" as="targetPoint" />
          </mxGeometry>
        </mxCell>
        <mxCell id="NwrFMbraZguzJdF94J6V-86" value="" style="endArrow=none;html=1;rounded=0;exitX=1;exitY=1;exitDx=0;exitDy=0;entryX=0.25;entryY=0;entryDx=0;entryDy=0;" edge="1" parent="1" source="NwrFMbraZguzJdF94J6V-84" target="NwrFMbraZguzJdF94J6V-88">
          <mxGeometry relative="1" as="geometry">
            <mxPoint x="-527.0710678118655" y="887.0710678118655" as="sourcePoint" />
            <mxPoint x="-490" y="920" as="targetPoint" />
          </mxGeometry>
        </mxCell>
        <mxCell id="NwrFMbraZguzJdF94J6V-87" value="POLÍCIA MILITAR" style="whiteSpace=wrap;html=1;align=center;" vertex="1" parent="1">
          <mxGeometry x="-680" y="940" width="100" height="40" as="geometry" />
        </mxCell>
        <mxCell id="NwrFMbraZguzJdF94J6V-88" value="POLÍCIA CIVIL&amp;nbsp;" style="whiteSpace=wrap;html=1;align=center;" vertex="1" parent="1">
          <mxGeometry x="-480" y="940" width="100" height="40" as="geometry" />
        </mxCell>
        <mxCell id="NwrFMbraZguzJdF94J6V-89" value="" style="verticalLabelPosition=bottom;verticalAlign=top;html=1;shape=mxgraph.basic.arc;startAngle=0.17620819117478337;endAngle=0.7721378066508927;rotation=45;" vertex="1" parent="1">
          <mxGeometry x="-590" y="900" width="20" height="20" as="geometry" />
        </mxCell>
        <mxCell id="NwrFMbraZguzJdF94J6V-90" value="" style="verticalLabelPosition=bottom;verticalAlign=top;html=1;shape=mxgraph.basic.arc;startAngle=0.17620819117478337;endAngle=0.7388772973869184;rotation=-45;" vertex="1" parent="1">
          <mxGeometry x="-500" y="900" width="20" height="20" as="geometry" />
        </mxCell>
        <mxCell id="NwrFMbraZguzJdF94J6V-91" value="posto" style="ellipse;whiteSpace=wrap;html=1;align=center;" vertex="1" parent="1">
          <mxGeometry x="-680" y="1040" width="100" height="40" as="geometry" />
        </mxCell>
        <mxCell id="NwrFMbraZguzJdF94J6V-92" value="" style="endArrow=none;html=1;rounded=0;entryX=0.5;entryY=0;entryDx=0;entryDy=0;exitX=0.5;exitY=1;exitDx=0;exitDy=0;" edge="1" parent="1" source="NwrFMbraZguzJdF94J6V-87" target="NwrFMbraZguzJdF94J6V-91">
          <mxGeometry relative="1" as="geometry">
            <mxPoint x="-1000" y="780" as="sourcePoint" />
            <mxPoint x="-840" y="780" as="targetPoint" />
          </mxGeometry>
        </mxCell>
        <mxCell id="NwrFMbraZguzJdF94J6V-100" value="" style="endArrow=none;html=1;rounded=0;exitX=1;exitY=0.5;exitDx=0;exitDy=0;entryX=0;entryY=0.5;entryDx=0;entryDy=0;" edge="1" parent="1" source="NwrFMbraZguzJdF94J6V-34" target="NwrFMbraZguzJdF94J6V-33">
          <mxGeometry relative="1" as="geometry">
            <mxPoint x="-1040" y="660" as="sourcePoint" />
            <mxPoint x="-880" y="660" as="targetPoint" />
          </mxGeometry>
        </mxCell>
        <mxCell id="NwrFMbraZguzJdF94J6V-110" value="" style="endArrow=none;html=1;rounded=0;entryX=0;entryY=0.5;entryDx=0;entryDy=0;exitX=1;exitY=0.5;exitDx=0;exitDy=0;" edge="1" parent="1" source="NwrFMbraZguzJdF94J6V-32" target="NwrFMbraZguzJdF94J6V-10">
          <mxGeometry relative="1" as="geometry">
            <mxPoint x="-1030" y="700" as="sourcePoint" />
            <mxPoint x="-870" y="700" as="targetPoint" />
          </mxGeometry>
        </mxCell>
        <mxCell id="NwrFMbraZguzJdF94J6V-111" value="" style="endArrow=none;html=1;rounded=0;entryX=0.5;entryY=1;entryDx=0;entryDy=0;exitX=0.5;exitY=0;exitDx=0;exitDy=0;" edge="1" parent="1" source="NwrFMbraZguzJdF94J6V-70" target="NwrFMbraZguzJdF94J6V-71">
          <mxGeometry relative="1" as="geometry">
            <mxPoint x="-1010" y="670" as="sourcePoint" />
            <mxPoint x="-850" y="670" as="targetPoint" />
          </mxGeometry>
        </mxCell>
        <mxCell id="NwrFMbraZguzJdF94J6V-113" value="" style="endArrow=none;html=1;rounded=0;exitX=0.5;exitY=1;exitDx=0;exitDy=0;entryX=0.5;entryY=0;entryDx=0;entryDy=0;" edge="1" parent="1" source="NwrFMbraZguzJdF94J6V-49" target="NwrFMbraZguzJdF94J6V-14">
          <mxGeometry relative="1" as="geometry">
            <mxPoint x="-1070" y="690" as="sourcePoint" />
            <mxPoint x="-910" y="690" as="targetPoint" />
          </mxGeometry>
        </mxCell>
        <mxCell id="NwrFMbraZguzJdF94J6V-114" value="" style="endArrow=none;html=1;rounded=0;entryX=0.5;entryY=1;entryDx=0;entryDy=0;exitX=0.5;exitY=0;exitDx=0;exitDy=0;" edge="1" parent="1" source="NwrFMbraZguzJdF94J6V-78" target="NwrFMbraZguzJdF94J6V-77">
          <mxGeometry relative="1" as="geometry">
            <mxPoint x="-940" y="740" as="sourcePoint" />
            <mxPoint x="-780" y="740" as="targetPoint" />
          </mxGeometry>
        </mxCell>
        <mxCell id="NwrFMbraZguzJdF94J6V-117" value="&lt;u&gt;código&lt;/u&gt;" style="ellipse;whiteSpace=wrap;html=1;align=center;" vertex="1" parent="1">
          <mxGeometry x="-1420" y="390" width="100" height="40" as="geometry" />
        </mxCell>
        <mxCell id="NwrFMbraZguzJdF94J6V-118" value="nome" style="ellipse;whiteSpace=wrap;html=1;align=center;" vertex="1" parent="1">
          <mxGeometry x="-1570" y="390" width="100" height="40" as="geometry" />
        </mxCell>
        <mxCell id="NwrFMbraZguzJdF94J6V-119" value="" style="endArrow=none;html=1;rounded=0;exitX=0;exitY=1;exitDx=0;exitDy=0;entryX=0.75;entryY=0;entryDx=0;entryDy=0;" edge="1" parent="1" source="NwrFMbraZguzJdF94J6V-117" target="NwrFMbraZguzJdF94J6V-34">
          <mxGeometry relative="1" as="geometry">
            <mxPoint x="-1110" y="660" as="sourcePoint" />
            <mxPoint x="-950" y="660" as="targetPoint" />
          </mxGeometry>
        </mxCell>
        <mxCell id="NwrFMbraZguzJdF94J6V-120" value="" style="endArrow=none;html=1;rounded=0;exitX=1;exitY=1;exitDx=0;exitDy=0;entryX=0.25;entryY=0;entryDx=0;entryDy=0;" edge="1" parent="1" source="NwrFMbraZguzJdF94J6V-118" target="NwrFMbraZguzJdF94J6V-34">
          <mxGeometry relative="1" as="geometry">
            <mxPoint x="-1110" y="660" as="sourcePoint" />
            <mxPoint x="-950" y="660" as="targetPoint" />
          </mxGeometry>
        </mxCell>
        <mxCell id="NwrFMbraZguzJdF94J6V-121" value="endereço" style="ellipse;whiteSpace=wrap;html=1;align=center;fillColor=#f8cecc;strokeColor=#b85450;" vertex="1" parent="1">
          <mxGeometry x="-1490" y="330" width="100" height="40" as="geometry" />
        </mxCell>
        <mxCell id="NwrFMbraZguzJdF94J6V-129" value="" style="endArrow=none;html=1;rounded=0;exitX=0.5;exitY=1;exitDx=0;exitDy=0;entryX=0.5;entryY=0;entryDx=0;entryDy=0;" edge="1" parent="1" source="NwrFMbraZguzJdF94J6V-121" target="NwrFMbraZguzJdF94J6V-34">
          <mxGeometry relative="1" as="geometry">
            <mxPoint x="-1474.8827359802729" y="434.23672865664616" as="sourcePoint" />
            <mxPoint x="-1455" y="500" as="targetPoint" />
          </mxGeometry>
        </mxCell>
        <mxCell id="NwrFMbraZguzJdF94J6V-130" value="horário&lt;br&gt;contatação" style="ellipse;whiteSpace=wrap;html=1;align=center;fillColor=#f8cecc;strokeColor=#b85450;" vertex="1" parent="1">
          <mxGeometry x="-480" y="360" width="100" height="40" as="geometry" />
        </mxCell>
        <mxCell id="NwrFMbraZguzJdF94J6V-131" value="" style="endArrow=none;html=1;rounded=0;exitX=0.5;exitY=0;exitDx=0;exitDy=0;entryX=0.5;entryY=1;entryDx=0;entryDy=0;" edge="1" parent="1" source="NwrFMbraZguzJdF94J6V-10" target="NwrFMbraZguzJdF94J6V-130">
          <mxGeometry relative="1" as="geometry">
            <mxPoint x="-395" y="500" as="sourcePoint" />
            <mxPoint x="-345.35533905932743" y="474.14213562373084" as="targetPoint" />
          </mxGeometry>
        </mxCell>
        <mxCell id="NwrFMbraZguzJdF94J6V-133" value="telefone" style="ellipse;whiteSpace=wrap;html=1;align=center;fillColor=#f8cecc;strokeColor=#b85450;" vertex="1" parent="1">
          <mxGeometry x="-1190" y="790" width="100" height="40" as="geometry" />
        </mxCell>
        <mxCell id="NwrFMbraZguzJdF94J6V-134" value="" style="endArrow=none;html=1;rounded=0;entryX=0;entryY=0.5;entryDx=0;entryDy=0;exitX=1;exitY=0.5;exitDx=0;exitDy=0;" edge="1" parent="1" source="NwrFMbraZguzJdF94J6V-68" target="NwrFMbraZguzJdF94J6V-14">
          <mxGeometry relative="1" as="geometry">
            <mxPoint x="-1074.6446609406726" y="724.1421356237311" as="sourcePoint" />
            <mxPoint x="-1070" y="750" as="targetPoint" />
          </mxGeometry>
        </mxCell>
        <mxCell id="NwrFMbraZguzJdF94J6V-135" value="email" style="ellipse;whiteSpace=wrap;html=1;align=center;fillColor=#f8cecc;strokeColor=#b85450;" vertex="1" parent="1">
          <mxGeometry x="-980" y="790" width="100" height="40" as="geometry" />
        </mxCell>
        <mxCell id="NwrFMbraZguzJdF94J6V-136" value="" style="endArrow=none;html=1;rounded=0;entryX=0;entryY=0;entryDx=0;entryDy=0;exitX=1;exitY=1;exitDx=0;exitDy=0;" edge="1" parent="1" source="NwrFMbraZguzJdF94J6V-14" target="NwrFMbraZguzJdF94J6V-135">
          <mxGeometry relative="1" as="geometry">
            <mxPoint x="-970" y="770" as="sourcePoint" />
            <mxPoint x="-940" y="760" as="targetPoint" />
          </mxGeometry>
        </mxCell>
      </root>
    </mxGraphModel>
  </diagram>
</mxfile>
